<svg xmlns="http://www.w3.org/2000/svg" width="256" height="256" viewBox="0 0 100 100"><rect width="100" height="100" rx="20" fill="#38923d"></rect><path fill="#fff" d="M17.80 56.08L17.80 74.32Q17.32 74.48 16.52 74.68Q15.72 74.88 14.76 74.88L14.76 74.88Q11.24 74.88 11.24 71.92L11.24 71.92L11.24 29.36Q11.24 28.08 11.88 27.40Q12.52 26.72 13.88 26.32L13.88 26.32Q16.20 25.60 19.60 25.28Q23 24.96 26.20 24.96L26.20 24.96Q36.28 24.96 41.20 29Q46.12 33.04 46.12 40.48L46.12 40.48Q46.12 46 43.28 49.76Q40.44 53.52 34.68 55.12L34.68 55.12Q36.68 57.68 38.68 60.24Q40.68 62.80 42.48 65.08Q44.28 67.36 45.68 69.20Q47.08 71.04 47.88 72.08L47.88 72.08Q47.56 73.44 46.48 74.24Q45.40 75.04 44.28 75.04L44.28 75.04Q42.92 75.04 42.04 74.40Q41.16 73.76 40.20 72.40L40.20 72.40L28.52 56.08L17.80 56.08ZM17.72 50.64L26.92 50.64Q32.84 50.64 36.20 48.08Q39.56 45.52 39.56 40.48L39.56 40.48Q39.56 35.44 36.04 32.92Q32.52 30.40 25.96 30.40L25.96 30.40Q23.80 30.40 21.60 30.60Q19.40 30.80 17.72 31.12L17.72 31.12L17.72 50.64ZM61.88 74.48L61.88 74.48Q60.36 74.48 59.36 73.52Q58.36 72.56 58.36 70.96L58.36 70.96L58.36 26Q58.76 25.84 59.60 25.64Q60.44 25.44 61.40 25.44L61.40 25.44Q64.92 25.44 64.92 28.40L64.92 28.40L64.92 68.88L87.88 68.88Q88.76 69.76 88.76 71.52L88.76 71.52Q88.76 72.88 88.04 73.68Q87.32 74.48 86.12 74.48L86.12 74.48L61.88 74.48Z"></path></svg>